<svg width="44" height="44" version="1.1" viewBox="0 0 44 44" xmlns="http://www.w3.org/2000/svg">
  <path d="m21.998 0.54257c-12.149 0-21.998 9.8499-21.998 22.001 0 9.7202 6.3032 17.966 15.046 20.876 1.1007 0.20122 1.5019-0.47811 1.5019-1.0616 0-0.52133-0.01914-1.9057-0.03063-3.7411-6.1195 1.329-7.4107-2.9497-7.4107-2.9497-1.0008-2.5405-2.4432-3.2171-2.4432-3.2171-1.9975-1.3654 0.15122-1.3384 0.15122-1.3384 2.2082 0.15666 3.3697 2.2676 3.3697 2.2676 1.9624 3.3616 5.1498 2.3905 6.4032 1.8287 0.19984-1.4222 0.76714-2.3919 1.3965-2.9416-4.8851-0.5551-10.021-2.4432-10.021-10.874 0-2.4014 0.85765-4.3651 2.2649-5.9034-0.22703-0.55644-0.98188-2.793 0.21478-5.8224 0 0 1.8476-0.59156 6.0507 2.2555 1.7544-0.48756 3.6371-0.73202 5.5077-0.74012 1.8679 0.0081 3.7506 0.25256 5.5077 0.74012 4.2003-2.847 6.0439-2.2555 6.0439-2.2555 1.2007 3.0294 0.44571 5.266 0.2186 5.8224 1.41 1.5383 2.2623 3.5021 2.2623 5.9034 0 8.452-5.1444 10.312-10.046 10.856 0.79008 0.67935 1.4937 2.0218 1.4937 4.0747 0 2.9402-0.0268 5.3132-0.0268 6.0344 0 0.58886 0.39575 1.2736 1.5127 1.0589 8.7356-2.9159 15.033-11.156 15.033-20.873 0-12.151-9.8512-22.001-22.002-22.001" fill="#343636" fill-rule="evenodd"/>
</svg>
